<svg width="400" height="169" viewBox="0 0 400 169" fill="none" xmlns="http://www.w3.org/2000/svg">
<g clip-path="url(#clip0)">
<path d="M242.644 74.6913V121.611H233.047V94.6242C233.047 94 233.06 93.3289 233.094 92.5973C233.127 91.8658 233.181 91.1275 233.268 90.3758L220.805 114.497C220.416 115.248 219.899 115.819 219.242 116.201C218.584 116.591 217.839 116.779 217.007 116.779H215.523C214.685 116.779 213.94 116.584 213.289 116.201C212.631 115.812 212.114 115.248 211.725 114.497L199.262 90.3087C199.329 91.0805 199.383 91.8389 199.423 92.5772C199.463 93.3154 199.49 94 199.49 94.6242V121.611H189.893V74.6913H198.201C198.671 74.6913 199.087 74.7047 199.443 74.7248C199.799 74.745 200.114 74.8121 200.396 74.9195C200.678 75.0268 200.926 75.1946 201.154 75.4161C201.383 75.6443 201.597 75.9597 201.812 76.3691L213.886 100.168C214.315 100.987 214.732 101.832 215.127 102.711C215.523 103.591 215.906 104.497 216.268 105.416C216.631 104.47 217.013 103.55 217.409 102.644C217.805 101.745 218.228 100.886 218.685 100.067L230.732 76.3624C230.946 75.953 231.168 75.6376 231.389 75.4094C231.617 75.1812 231.866 75.0201 232.148 74.9128C232.43 74.8054 232.745 74.7383 233.101 74.7181C233.456 74.698 233.866 74.6846 234.342 74.6846H242.644V74.6913Z" fill="#0C0C0C"/>
<path d="M298.483 98.1342C298.483 101.523 297.899 104.685 296.725 107.604C295.557 110.523 293.906 113.06 291.779 115.221C289.651 117.376 287.094 119.067 284.101 120.295C281.107 121.517 277.785 122.128 274.134 122.128C270.483 122.128 267.154 121.517 264.154 120.295C261.148 119.074 258.577 117.383 256.443 115.221C254.309 113.067 252.651 110.523 251.483 107.604C250.309 104.685 249.725 101.53 249.725 98.1342C249.725 94.745 250.309 91.5839 251.483 88.6644C252.651 85.745 254.309 83.2148 256.443 81.0671C258.577 78.9195 261.148 77.2349 264.154 76.0134C267.161 74.7919 270.49 74.1745 274.134 74.1745C277.779 74.1745 281.107 74.7919 284.101 76.0268C287.094 77.2617 289.658 78.953 291.779 81.1007C293.906 83.2483 295.55 85.7785 296.725 88.698C297.899 91.6242 298.483 94.7651 298.483 98.1342ZM287.342 98.1342C287.342 95.8188 287.04 93.7248 286.443 91.8725C285.839 90.0134 284.98 88.443 283.852 87.1544C282.725 85.8658 281.342 84.8792 279.711 84.1946C278.081 83.5101 276.221 83.1611 274.141 83.1611C272.034 83.1611 270.161 83.5034 268.524 84.1946C266.879 84.8792 265.497 85.8658 264.369 87.1544C263.242 88.443 262.376 90.0134 261.779 91.8725C261.175 93.7315 260.879 95.8188 260.879 98.1342C260.879 100.477 261.181 102.57 261.779 104.43C262.383 106.289 263.242 107.859 264.369 109.148C265.497 110.436 266.879 111.416 268.524 112.094C270.168 112.772 272.04 113.107 274.141 113.107C276.221 113.107 278.081 112.772 279.711 112.094C281.342 111.416 282.725 110.436 283.852 109.148C284.98 107.859 285.846 106.289 286.443 104.43C287.04 102.577 287.342 100.477 287.342 98.1342Z" fill="#0C0C0C"/>
<path d="M351.651 98.1342C351.651 101.523 351.067 104.685 349.899 107.604C348.731 110.523 347.08 113.06 344.953 115.221C342.825 117.376 340.268 119.067 337.275 120.295C334.282 121.517 330.96 122.128 327.309 122.128C323.658 122.128 320.329 121.517 317.322 120.295C314.315 119.074 311.745 117.383 309.611 115.221C307.476 113.067 305.819 110.523 304.651 107.604C303.483 104.685 302.893 101.53 302.893 98.1342C302.893 94.745 303.476 91.5839 304.651 88.6644C305.825 85.745 307.476 83.2148 309.611 81.0671C311.745 78.9195 314.315 77.2349 317.322 76.0134C320.329 74.7919 323.658 74.1745 327.309 74.1745C330.96 74.1745 334.282 74.7919 337.275 76.0268C340.268 77.2617 342.832 78.953 344.953 81.1007C347.08 83.2483 348.725 85.7785 349.899 88.698C351.067 91.6242 351.651 94.7651 351.651 98.1342ZM340.51 98.1342C340.51 95.8188 340.208 93.7248 339.611 91.8725C339.007 90.0134 338.148 88.443 337.02 87.1544C335.893 85.8658 334.517 84.8792 332.879 84.1946C331.248 83.5101 329.389 83.1611 327.309 83.1611C325.201 83.1611 323.329 83.5034 321.691 84.1946C320.047 84.8792 318.664 85.8658 317.537 87.1544C316.409 88.443 315.544 90.0134 314.946 91.8725C314.342 93.7315 314.047 95.8188 314.047 98.1342C314.047 100.477 314.349 102.57 314.946 104.43C315.544 106.289 316.409 107.859 317.537 109.148C318.664 110.436 320.047 111.416 321.691 112.094C323.336 112.772 325.208 113.107 327.309 113.107C329.389 113.107 331.248 112.772 332.879 112.094C334.51 111.416 335.893 110.436 337.02 109.148C338.148 107.859 339.013 106.289 339.611 104.43C340.208 102.577 340.51 100.477 340.51 98.1342Z" fill="#0C0C0C"/>
<path d="M399.731 74.6913V121.611H394.06C393.221 121.611 392.523 121.477 391.953 121.208C391.382 120.94 390.819 120.47 390.262 119.805L368.141 91.8188C368.228 92.6577 368.288 93.4698 368.315 94.2483C368.349 95.0336 368.362 95.7651 368.362 96.4564V121.604H358.765V74.6846H364.497C364.966 74.6846 365.369 74.7047 365.691 74.7517C366.013 74.7987 366.302 74.8725 366.557 74.9933C366.812 75.1141 367.06 75.2752 367.295 75.4899C367.53 75.7047 367.799 75.9933 368.101 76.3557L390.416 104.53C390.309 103.631 390.235 102.752 390.188 101.906C390.148 101.06 390.121 100.262 390.121 99.5101V74.6846H399.731V74.6913Z" fill="#0C0C0C"/>
<path d="M210.94 5.69799C215.114 5.69799 218.691 6.19463 221.691 7.18121C224.685 8.16779 227.148 9.5302 229.087 11.2685C231.027 13 232.456 15.047 233.376 17.4027C234.295 19.7584 234.758 22.3087 234.758 25.0403C234.758 27.9933 234.282 30.7047 233.336 33.1678C232.389 35.6309 230.94 37.745 228.987 39.5101C227.034 41.2752 224.564 42.6443 221.571 43.6376C218.577 44.6242 215.034 45.1208 210.946 45.1208H203.792V64.9128H190.054V5.69799H210.94ZM210.94 34.7584C214.517 34.7584 217.087 33.906 218.664 32.2013C220.235 30.4966 221.02 28.1074 221.02 25.047C221.02 23.6913 220.819 22.4631 220.409 21.349C220 20.2349 219.389 19.2819 218.564 18.4832C217.738 17.6846 216.691 17.0671 215.436 16.6376C214.175 16.2081 212.678 15.9866 210.946 15.9866H203.792V34.7651H210.94V34.7584Z" fill="#F492B1"/>
<path d="M261.174 64.9128H247.356V5.69799H261.174V64.9128Z" fill="#F492B1"/>
<path d="M329.933 5.69799V64.9128H322.778C321.725 64.9128 320.832 64.745 320.114 64.4027C319.396 64.0671 318.685 63.4765 317.98 62.6376L290.06 27.3221C290.168 28.3758 290.242 29.4027 290.282 30.3893C290.322 31.3758 290.342 32.3087 290.342 33.1745V64.9128H278.235V5.69799H285.47C286.067 5.69799 286.57 5.72483 286.973 5.77852C287.383 5.83221 287.745 5.93289 288.074 6.08725C288.396 6.2349 288.711 6.44295 289.007 6.71812C289.302 6.98658 289.644 7.3557 290.02 7.81879L318.181 43.3825C318.047 42.2416 317.953 41.1409 317.899 40.0671C317.846 39 317.819 37.9866 317.819 37.0403V5.69799H329.933Z" fill="#F492B1"/>
<path d="M360.745 29.6779H362.94C364.973 29.6779 366.436 29.0403 367.329 27.7651L380.658 8.42282C381.443 7.39597 382.289 6.68456 383.195 6.28859C384.101 5.89933 385.235 5.69799 386.591 5.69799H398.537L380.98 29.6376C379.732 31.2886 378.389 32.4832 376.953 33.2148C377.98 33.5973 378.92 34.1208 379.758 34.7987C380.597 35.4765 381.383 36.3557 382.114 37.443L400 64.9128H387.725C386.94 64.9128 386.268 64.8591 385.711 64.7517C385.154 64.6443 384.678 64.4832 384.268 64.2617C383.859 64.047 383.51 63.7785 383.215 63.4698C382.919 63.1611 382.631 62.7987 382.362 62.396L368.953 41.7919C368.463 41.0336 367.852 40.4966 367.107 40.1879C366.362 39.8792 365.356 39.7181 364.081 39.7181H360.752V64.9128H347.013V5.69799H360.752V29.6779H360.745Z" fill="#F492B1"/>
<path d="M222.973 134.081V166.034H219.181V142.557C219.181 142.242 219.195 141.913 219.215 141.55C219.235 141.195 219.262 140.832 219.295 140.456L208.322 160.436C207.98 161.107 207.456 161.443 206.765 161.443H206.141C205.443 161.443 204.919 161.107 204.577 160.436L193.383 140.369C193.47 141.154 193.517 141.886 193.517 142.557V166.034H189.725V134.081H192.913C193.302 134.081 193.597 134.121 193.805 134.195C194.013 134.268 194.215 134.477 194.409 134.819L205.45 154.483C205.631 154.839 205.805 155.215 205.973 155.597C206.148 155.987 206.302 156.376 206.456 156.779C206.604 156.376 206.758 155.98 206.926 155.584C207.087 155.188 207.268 154.812 207.463 154.456L218.302 134.812C218.483 134.47 218.678 134.262 218.893 134.188C219.107 134.114 219.409 134.074 219.799 134.074H222.973V134.081Z" fill="#0C0C0C"/>
<path d="M268.463 162.51L268.443 166.034H248.752V134.081H268.443V137.604H253.081V148.221H265.523V151.611H253.081V162.517H268.463V162.51Z" fill="#0C0C0C"/>
<path d="M319.812 150.067C319.812 152.463 319.436 154.638 318.678 156.597C317.92 158.557 316.852 160.242 315.47 161.638C314.087 163.034 312.423 164.114 310.483 164.879C308.544 165.644 306.403 166.027 304.054 166.027H292.128V134.074H304.054C306.403 134.074 308.544 134.456 310.483 135.221C312.423 135.987 314.087 137.074 315.47 138.477C316.852 139.879 317.92 141.564 318.678 143.524C319.436 145.497 319.812 147.678 319.812 150.067ZM315.376 150.067C315.376 148.107 315.107 146.349 314.571 144.805C314.034 143.262 313.275 141.953 312.295 140.879C311.316 139.812 310.128 138.993 308.725 138.43C307.322 137.866 305.765 137.584 304.04 137.584H296.436V162.537H304.04C305.765 162.537 307.322 162.255 308.725 161.691C310.121 161.128 311.309 160.315 312.295 159.248C313.275 158.188 314.034 156.879 314.571 155.336C315.107 153.785 315.376 152.034 315.376 150.067Z" fill="#0C0C0C"/>
<path d="M347.98 166.034H343.658V134.081H347.98V166.034Z" fill="#0C0C0C"/>
<path d="M399.732 166.034H396.389C396 166.034 395.691 165.94 395.45 165.745C395.215 165.55 395.034 165.309 394.913 165.007L391.926 157.289H377.591L374.604 165.007C374.517 165.275 374.342 165.51 374.094 165.718C373.839 165.926 373.53 166.034 373.154 166.034H369.812L382.591 134.081H386.96L399.732 166.034ZM390.718 154.175L385.705 141.175C385.557 140.785 385.403 140.336 385.235 139.826C385.074 139.315 384.913 138.765 384.765 138.188C384.45 139.389 384.134 140.396 383.805 141.201L378.785 154.181H390.718V154.175Z" fill="#0C0C0C"/>
<path d="M81.5436 166.087C126.579 166.087 163.087 129.579 163.087 84.5436C163.087 39.5083 126.579 3 81.5436 3C36.5083 3 0 39.5083 0 84.5436C0 129.579 36.5083 166.087 81.5436 166.087Z" fill="#F492B1"/>
<path d="M101.624 137.195C56.5906 137.195 20.0805 100.685 20.0805 55.651C20.0805 44.6913 22.2483 34.2416 26.1678 24.698C10.0738 39.5906 0 60.8859 0 84.5436C0 129.577 36.5101 166.087 81.5436 166.087C115.624 166.087 144.812 145.181 157 115.497C142.456 128.96 123.007 137.195 101.624 137.195Z" fill="#BC6685"/>
<path d="M137.376 108.295C144.544 108.295 150.356 102.484 150.356 95.3154C150.356 88.1469 144.544 82.3356 137.376 82.3356C130.207 82.3356 124.396 88.1469 124.396 95.3154C124.396 102.484 130.207 108.295 137.376 108.295Z" fill="#E086A7"/>
<path d="M140.47 88.7852C145.631 93.7718 145.765 102 140.779 107.161C140.456 107.49 140.121 107.805 139.779 108.094C142.362 107.624 144.826 106.376 146.792 104.342C151.779 99.1812 151.644 90.953 146.483 85.9664C141.658 81.2953 134.141 81.1208 129.107 85.3423C133.081 84.6242 137.342 85.7584 140.47 88.7852Z" fill="#BC6685"/>
<path d="M110.154 128.289C116.622 128.289 121.866 123.045 121.866 116.577C121.866 110.109 116.622 104.866 110.154 104.866C103.686 104.866 98.443 110.109 98.443 116.577C98.443 123.045 103.686 128.289 110.154 128.289Z" fill="#E086A7"/>
<path d="M112.946 110.685C117.604 115.188 117.725 122.617 113.221 127.275C112.933 127.577 112.631 127.852 112.315 128.114C114.644 127.691 116.872 126.564 118.644 124.732C123.148 120.074 123.027 112.651 118.369 108.141C114.013 103.926 107.228 103.765 102.685 107.577C106.282 106.926 110.121 107.953 112.946 110.685Z" fill="#BC6685"/>
<path d="M142 64.6242C146.581 64.6242 150.295 60.9102 150.295 56.3289C150.295 51.7475 146.581 48.0336 142 48.0336C137.419 48.0336 133.705 51.7475 133.705 56.3289C133.705 60.9102 137.419 64.6242 142 64.6242Z" fill="#E086A7"/>
<path d="M143.98 52.1544C147.282 55.3423 147.369 60.604 144.175 63.906C143.966 64.1208 143.758 64.3154 143.537 64.5034C145.188 64.2013 146.765 63.4027 148.02 62.1074C151.208 58.8054 151.121 53.5503 147.826 50.3557C144.738 47.3691 139.933 47.255 136.718 49.9597C139.255 49.4899 141.98 50.2148 143.98 52.1544Z" fill="#BC6685"/>
<path d="M98.8993 58.745C103.481 58.745 107.195 55.031 107.195 50.4497C107.195 45.8683 103.481 42.1544 98.8993 42.1544C94.3179 42.1544 90.604 45.8683 90.604 50.4497C90.604 55.031 94.3179 58.745 98.8993 58.745Z" fill="#E086A7"/>
<path d="M100.879 46.2752C104.181 49.4631 104.268 54.7248 101.074 58.0268C100.866 58.2416 100.658 58.4362 100.436 58.6242C102.087 58.3222 103.664 57.5235 104.919 56.2282C108.107 52.9262 108.02 47.6711 104.725 44.4765C101.638 41.4899 96.8322 41.3758 93.6174 44.0805C96.1543 43.6107 98.8792 44.3423 100.879 46.2752Z" fill="#BC6685"/>
<path d="M90.5705 31.8054C96.5011 31.8054 101.309 26.9977 101.309 21.0671C101.309 15.1365 96.5011 10.3289 90.5705 10.3289C84.64 10.3289 79.8323 15.1365 79.8323 21.0671C79.8323 26.9977 84.64 31.8054 90.5705 31.8054Z" fill="#E086A7"/>
<path d="M93.1275 15.6577C97.396 19.7852 97.5101 26.5906 93.3826 30.8658C93.1141 31.1409 92.8389 31.396 92.5571 31.6376C94.6913 31.2483 96.7316 30.2148 98.3557 28.5369C102.483 24.2685 102.369 17.4631 98.1007 13.3289C94.1074 9.46309 87.8859 9.31543 83.7249 12.8121C87.0134 12.2148 90.5369 13.1544 93.1275 15.6577Z" fill="#BC6685"/>
<path d="M58.4631 67.0336C68.3041 67.0336 76.2819 59.0558 76.2819 49.2148C76.2819 39.3737 68.3041 31.396 58.4631 31.396C48.622 31.396 40.6443 39.3737 40.6443 49.2148C40.6443 59.0558 48.622 67.0336 58.4631 67.0336Z" fill="#E086A7"/>
<path d="M62.7114 40.2416C69.792 47.094 69.9866 58.3826 63.1343 65.4698C62.6913 65.9262 62.2349 66.349 61.7584 66.7517C65.302 66.1074 68.6913 64.396 71.3826 61.604C78.2349 54.5235 78.0403 43.2282 70.9598 36.3758C64.3289 29.9664 54.0202 29.7181 47.1074 35.5168C52.5705 34.5302 58.4161 36.094 62.7114 40.2416Z" fill="#BC6685"/>
<path d="M114.087 39.1611C117.861 39.1611 120.919 36.1022 120.919 32.3289C120.919 28.5555 117.861 25.4966 114.087 25.4966C110.314 25.4966 107.255 28.5555 107.255 32.3289C107.255 36.1022 110.314 39.1611 114.087 39.1611Z" fill="#E086A7"/>
<path d="M115.718 28.8859C118.436 31.5101 118.51 35.8456 115.879 38.5638C115.711 38.7383 115.537 38.8993 115.349 39.0537C116.711 38.8054 118.007 38.1476 119.04 37.0805C121.664 34.3624 121.597 30.0336 118.879 27.4027C116.336 24.9463 112.383 24.8523 109.732 27.0738C111.832 26.6913 114.067 27.2953 115.718 28.8859Z" fill="#BC6685"/>
</g>
<defs>
<clipPath id="clip0">
<rect width="400" height="163.087" fill="white" transform="translate(0 3)"/>
</clipPath>
</defs>
</svg>
